<?xml version="1.0" standalone="no"?>
<!DOCTYPE svg PUBLIC "-//W3C//DTD SVG 20010904//EN"
 "http://www.w3.org/TR/2001/REC-SVG-20010904/DTD/svg10.dtd">
<svg version="1.0" xmlns="http://www.w3.org/2000/svg"
 width="192.000000pt" height="192.000000pt" viewBox="0 0 192.000000 192.000000"
 preserveAspectRatio="xMidYMid meet">
<metadata>
Created by potrace 1.11, written by Peter Selinger 2001-2013
</metadata>
<g transform="translate(0.000000,192.000000) scale(0.100000,-0.100000)"
fill="#000000" stroke="none">
<path d="M762 1909 c-13 -5 -38 -12 -55 -15 -43 -8 -48 -9 -77 -21 -167 -70
-254 -127 -366 -241 -46 -47 -84 -89 -84 -94 0 -5 -9 -18 -19 -30 -24 -25
-121 -219 -126 -251 -2 -12 -11 -48 -19 -80 -30 -118 -12 -468 26 -514 6 -7 7
-13 3 -13 -4 0 -2 -6 4 -13 6 -8 8 -17 4 -20 -3 -4 0 -7 7 -7 7 0 11 -3 7 -6
-3 -4 8 -34 25 -68 98 -191 248 -341 433 -433 64 -32 165 -69 212 -77 15 -3
49 -10 75 -14 51 -10 266 -8 308 2 29 7 60 14 93 21 42 9 182 68 232 98 67 41
162 116 205 163 48 52 130 157 130 167 0 4 11 24 23 45 38 60 90 209 105 302
16 94 4 339 -20 398 -5 15 -12 38 -15 52 -14 78 -124 266 -208 358 -38 41
-147 133 -190 159 -40 25 -140 77 -153 79 -8 1 -21 6 -30 10 -9 4 -19 8 -22 9
-3 1 -12 5 -20 8 -8 4 -46 13 -84 21 -76 16 -366 19 -404 5z m373 -451 c38
-42 70 -98 96 -165 16 -43 37 -24 88 82 l50 105 91 0 c49 0 90 -2 90 -5 0 -3
-15 -35 -34 -72 -19 -38 -46 -95 -61 -128 -15 -33 -40 -88 -56 -123 -16 -35
-29 -67 -29 -71 0 -4 -17 -39 -37 -77 l-38 -69 1 -121 c1 -126 12 -175 55
-236 40 -56 121 -24 150 60 7 22 17 32 31 32 19 0 19 -4 13 -62 -8 -77 -36
-141 -83 -190 -29 -31 -43 -38 -73 -38 -74 0 -118 67 -134 200 -3 30 -11 83
-17 118 l-11 62 -29 -32 c-15 -18 -35 -48 -44 -66 -29 -57 -188 -197 -273
-239 -69 -34 -85 -38 -168 -41 -87 -4 -96 -2 -157 28 -173 84 -247 271 -203
506 35 181 187 403 352 515 87 59 164 80 284 76 l104 -3 42 -46z"/>
<path d="M946 1429 c-55 -6 -62 -10 -123 -70 -64 -63 -128 -158 -172 -254 -43
-94 -50 -110 -71 -165 -11 -30 -20 -67 -20 -82 0 -16 -4 -28 -10 -28 -11 0
-14 -170 -4 -243 12 -83 95 -157 175 -157 53 0 82 13 135 62 58 53 163 237
260 453 15 33 40 89 56 124 38 80 34 119 -21 234 -62 128 -81 140 -205 126z"/>
</g>
</svg>
